<?xml version="1.0" encoding="UTF-8" standalone="no"?>
<!-- Created with Inkscape (http://www.inkscape.org/) -->

<svg
   xmlns:dc="http://purl.org/dc/elements/1.1/"
   xmlns:cc="http://creativecommons.org/ns#"
   xmlns:rdf="http://www.w3.org/1999/02/22-rdf-syntax-ns#"
   xmlns:svg="http://www.w3.org/2000/svg"
   xmlns="http://www.w3.org/2000/svg"
   xmlns:sodipodi="http://sodipodi.sourceforge.net/DTD/sodipodi-0.dtd"
   xmlns:inkscape="http://www.inkscape.org/namespaces/inkscape"
   width="75.452866mm"
   height="15.192917mm"
   viewBox="0 0 75.452866 15.192917"
   version="1.1"
   id="svg1432"
   inkscape:version="0.92.3 (2405546, 2018-03-11)"
   sodipodi:docname="Logotipo.svg">
  <defs
     id="defs1426" />
  <sodipodi:namedview
     id="base"
     pagecolor="#ffffff"
     bordercolor="#666666"
     borderopacity="1.0"
     inkscape:pageopacity="0.0"
     inkscape:pageshadow="2"
     inkscape:zoom="0.35"
     inkscape:cx="876.8738"
     inkscape:cy="-371.28897"
     inkscape:document-units="mm"
     inkscape:current-layer="layer1"
     showgrid="false"
     inkscape:window-width="1920"
     inkscape:window-height="960"
     inkscape:window-x="0"
     inkscape:window-y="30"
     inkscape:window-maximized="1" />
  <metadata
     id="metadata1429">
    <rdf:RDF>
      <cc:Work
         rdf:about="">
        <dc:format>image/svg+xml</dc:format>
        <dc:type
           rdf:resource="http://purl.org/dc/dcmitype/StillImage" />
        <dc:title></dc:title>
      </cc:Work>
    </rdf:RDF>
  </metadata>
  <g
     inkscape:label="Camada 1"
     inkscape:groupmode="layer"
     id="layer1"
     transform="translate(278.87524,-35.403542)">
    <path
       inkscape:connector-curvature="0"
       id="path819"
       style="font-style:normal;font-variant:normal;font-weight:normal;font-stretch:normal;font-size:medium;line-height:1.25;font-family:'Sofia Pro';-inkscape-font-specification:'Sofia Pro';letter-spacing:0px;word-spacing:0px;fill:#ffffff;fill-opacity:1;stroke:#ffffff;stroke-width:0.40000001;stroke-miterlimit:4;stroke-dasharray:none"
       d="m -272.94283,50.396293 c 4.20804,0 6.65559,-3.156043 6.65559,-7.364094 0,-4.20807 -2.44755,-7.428523 -6.65559,-7.428523 h -5.73241 v 14.792617 z m -3.73573,-1.867863 V 37.471538 h 3.73573 c 3.07016,0 4.65891,2.447544 4.65891,5.560661 0,3.113097 -1.58875,5.496231 -4.65891,5.496231 z" />
    <g
       id="g842"
       transform="matrix(1.5527467,0,0,1.5527467,261.47708,-176.6301)"
       style="fill:#ffffff">
      <path
         d="m -318.03901,139.64548 c 0,-1.15359 -0.75142,-1.88384 -1.97908,-1.88384 h -2.75167 v 7.29192 h 2.9845 c 1.35467,0 2.13783,-0.97367 2.13783,-2.10608 0,-0.71967 -0.49741,-1.60867 -1.31233,-1.778 0.68792,-0.254 0.92075,-0.91017 0.92075,-1.524 z m -3.73592,1.143 v -2.11667 h 1.651 c 0.66675,0 1.0795,0.37042 1.0795,1.00542 0,0.59266 -0.32808,1.11125 -0.97366,1.11125 z m 1.91559,0.86783 c 0.73025,0 1.19591,0.68792 1.19591,1.28058 0,0.62442 -0.4445,1.19592 -1.16416,1.19592 h -1.94734 v -2.4765 z"
         style="font-style:normal;font-variant:normal;font-weight:normal;font-stretch:normal;font-size:medium;line-height:1.25;font-family:'Sofia Pro';-inkscape-font-specification:'Sofia Pro';letter-spacing:0px;word-spacing:0px;fill:#ffffff;fill-opacity:1;stroke:none;stroke-width:0.26458332"
         id="path823"
         inkscape:connector-curvature="0" />
      <path
         d="m -312.3885,145.05356 h 0.9525 v -4.94242 h -0.9525 v 0.74084 c -0.33867,-0.56092 -1.04775,-0.84667 -1.73567,-0.84667 -1.35467,0 -2.50825,0.99483 -2.50825,2.57175 0,1.56633 1.15358,2.58233 2.50825,2.58233 0.68792,0 1.40758,-0.3175 1.73567,-0.86783 z m -0.0106,-2.48708 c 0,1.04775 -0.762,1.651 -1.64041,1.651 -0.889,0 -1.60867,-0.67734 -1.60867,-1.651 0,-0.97367 0.71967,-1.61925 1.60867,-1.61925 0.80433,0 1.64041,0.56091 1.64041,1.61925 z"
         style="font-style:normal;font-variant:normal;font-weight:normal;font-stretch:normal;font-size:medium;line-height:1.25;font-family:'Sofia Pro';-inkscape-font-specification:'Sofia Pro';letter-spacing:0px;word-spacing:0px;fill:#ffffff;fill-opacity:1;stroke:none;stroke-width:0.26458332"
         id="path825"
         inkscape:connector-curvature="0" />
      <path
         d="m -308.87136,142.38656 c 0,-1.04775 0.6985,-1.43933 1.397,-1.43933 0.67733,0 1.09008,0.47625 1.09008,1.31233 v 2.794 h 0.96308 v -2.8575 c 0,-1.397 -0.66675,-2.19075 -1.905,-2.19075 -0.53975,0 -1.25941,0.254 -1.54516,0.84667 v -0.74084 h -0.96309 v 4.94242 h 0.96309 z"
         style="font-style:normal;font-variant:normal;font-weight:normal;font-stretch:normal;font-size:medium;line-height:1.25;font-family:'Sofia Pro';-inkscape-font-specification:'Sofia Pro';letter-spacing:0px;word-spacing:0px;fill:#ffffff;fill-opacity:1;stroke:none;stroke-width:0.26458332"
         id="path827"
         inkscape:connector-curvature="0" />
      <path
         d="m -302.92882,142.64056 2.25425,2.413 h 1.27 l -2.62467,-2.80458 2.11667,-2.13784 h -1.31234 l -1.70391,1.72509 v -4.41325 h -0.9525 v 7.63058 h 0.9525 z"
         style="font-style:normal;font-variant:normal;font-weight:normal;font-stretch:normal;font-size:medium;line-height:1.25;font-family:'Sofia Pro';-inkscape-font-specification:'Sofia Pro';letter-spacing:0px;word-spacing:0px;fill:#ffffff;fill-opacity:1;stroke:none;stroke-width:0.26458332"
         id="path829"
         inkscape:connector-curvature="0" />
    </g>
    <path
       style="font-style:normal;font-variant:normal;font-weight:normal;font-stretch:normal;font-size:medium;line-height:1.25;font-family:'Sofia Pro';-inkscape-font-specification:'Sofia Pro';letter-spacing:0px;word-spacing:0px;fill:#ffffff;fill-opacity:1;stroke:#ffffff;stroke-width:0.40000001;stroke-miterlimit:4;stroke-dasharray:none"
       d="m -257.42061,35.603542 v 0.01138 c -3.94965,0.208166 -6.23475,3.351487 -6.23475,7.417117 0,4.065611 2.2851,7.148941 6.23475,7.35304 v 0.01138 h 0.42116 5.31133 0.42063 v -0.01138 c 3.9497,-0.204099 6.23478,-3.287429 6.23478,-7.35304 0,-4.06563 -2.28508,-7.208951 -6.23478,-7.417117 v -0.01138 h -0.42063 -5.31133 z m 0.74157,1.783356 h 0.31988 4.03075 0.31937 v 0.0088 c 0.27456,0.01447 0.53817,0.04803 0.79116,0.0987 2.76074,0.239268 4.18838,2.588298 4.18838,5.537643 0,2.936222 -1.41658,5.218047 -4.15324,5.468401 -0.26369,0.05373 -0.53898,0.08902 -0.8263,0.10387 v 0.0088 h -0.31937 -4.03075 -0.31988 v -0.0088 c -0.28731,-0.01484 -0.56263,-0.05014 -0.82632,-0.10387 -2.73661,-0.250354 -4.15321,-2.532179 -4.15321,-5.468401 0,-2.949345 1.42766,-5.298375 4.18838,-5.537643 0.25299,-0.05068 0.5166,-0.08423 0.79115,-0.0987 z"
       id="path1363"
       inkscape:connector-curvature="0"
       sodipodi:nodetypes="ccsccccccscccccccccccsccccccccsccc" />
  </g>
</svg>
